<?xml version="1.0" standalone="no"?>
<!DOCTYPE svg PUBLIC "-//W3C//DTD SVG 20010904//EN"
 "http://www.w3.org/TR/2001/REC-SVG-20010904/DTD/svg10.dtd">
<svg version="1.0" xmlns="http://www.w3.org/2000/svg"
 width="2160.000000pt" height="700.000000pt" viewBox="0 0 2160.000000 700.000000"
 preserveAspectRatio="xMidYMid meet">

<g transform="translate(0.000000,700.000000) scale(0.100000,-0.100000)"
fill="#000000" stroke="none">
<path d="M5330 5909 c-459 -248 -840 -458 -847 -467 -7 -10 -18 -34 -23 -55
-17 -59 2 -124 76 -260 l65 -120 -562 -846 c-309 -465 -567 -852 -572 -858 -8
-10 175 -13 907 -13 l916 0 0 861 0 860 -40 17 c-22 9 -40 19 -40 22 0 3 233
130 517 284 l517 278 26 -33 c14 -18 136 -167 272 -331 l248 -298 -28 -14
c-37 -19 -68 -54 -87 -98 -20 -50 -21 -244 0 -294 l14 -35 -81 -125 -81 -125
38 -110 c21 -60 36 -111 34 -112 -41 -26 -106 -88 -130 -123 -57 -84 -81 -158
-80 -253 0 -187 69 -327 203 -412 l53 -34 258 3 c410 6 452 -2 505 -98 46 -83
29 -216 -35 -276 -97 -91 -294 -119 -412 -60 -31 16 -59 42 -86 81 -69 98 -66
97 -127 79 -29 -9 -78 -26 -108 -37 -48 -19 -55 -26 -58 -52 -5 -50 79 -178
163 -248 84 -71 87 -72 218 -93 183 -29 387 2 499 76 65 43 180 167 208 225
20 42 23 63 24 169 0 120 0 121 -42 221 -77 180 -143 244 -280 271 -92 18
-244 20 -350 4 -80 -13 -188 -7 -255 12 -55 16 -102 74 -118 142 -10 48 -10
61 5 101 28 73 90 109 240 141 102 21 135 10 219 -79 64 -66 72 -71 108 -70
58 3 179 44 190 66 14 26 -4 73 -62 162 -27 42 -49 81 -49 87 0 6 14 56 31
110 17 55 28 106 25 113 -2 7 -39 61 -82 120 l-77 107 19 31 c23 39 33 228 15
295 -11 41 -64 105 -105 128 -19 10 -17 13 24 50 72 65 98 156 67 241 -17 45
-548 684 -589 707 -18 11 -55 25 -82 31 l-48 11 -72 129 c-39 72 -82 144 -95
162 -27 36 -108 83 -142 83 -13 0 -400 -203 -859 -451z m1838 -1557 l97 -59
-3 -84 c-1 -46 -5 -94 -8 -107 l-5 -23 -42 25 c-70 41 -147 51 -290 39 -107
-9 -135 -15 -193 -42 -37 -17 -71 -28 -74 -24 -9 11 -34 212 -27 220 3 3 45
31 93 62 l88 56 133 -2 134 -2 97 -59z m-54 -328 c71 -28 156 -107 156 -144 0
-34 -33 -23 -65 22 -58 79 -172 111 -324 90 -127 -18 -275 -111 -322 -203 -43
-85 -33 -223 23 -302 60 -85 117 -108 268 -106 430 7 538 -1 606 -46 39 -26
92 -105 115 -175 30 -87 29 -229 -1 -297 -67 -151 -204 -236 -429 -263 -152
-19 -214 -4 -317 78 -54 42 -120 134 -109 152 13 21 36 8 73 -43 81 -108 156
-146 293 -147 208 0 401 109 443 251 32 108 7 273 -54 359 -53 74 -153 92
-490 88 -222 -3 -262 -1 -311 15 -113 36 -189 163 -189 320 0 45 7 73 31 122
34 70 75 110 186 177 60 36 82 43 183 59 154 23 160 23 234 -7z"/>
<path d="M16401 5303 c-16 -16 -32 -38 -36 -50 -6 -21 -3 -23 27 -23 18 0 63
-3 101 -7 l67 -6 0 27 c0 17 -11 39 -29 57 -40 39 -89 40 -130 2z"/>
<path d="M17773 5204 c-29 -14 -63 -68 -51 -80 9 -8 183 -21 191 -14 15 14 -5
61 -38 85 -37 29 -58 31 -102 9z"/>
<path d="M16083 5185 c-50 -21 -54 -76 -9 -114 16 -14 697 -75 733 -66 32 8
57 49 49 80 -12 47 -34 52 -361 79 -170 14 -326 28 -345 30 -19 3 -49 -1 -67
-9z"/>
<path d="M17420 5060 c-25 -25 -26 -72 -1 -94 24 -21 69 -27 444 -57 259 -21
291 -22 315 -8 20 11 28 24 30 50 6 67 0 69 -361 100 -395 35 -401 35 -427 9z"/>
<path d="M16335 4901 c-7 -71 -2 -128 17 -191 23 -75 68 -91 115 -40 l28 30
109 -10 c60 -6 116 -15 125 -19 9 -5 39 -33 67 -63 57 -60 79 -114 89 -221 5
-54 11 -70 28 -81 29 -18 284 -39 308 -25 11 5 25 34 34 67 25 88 36 111 76
162 73 93 128 110 301 93 63 -5 69 -8 88 -39 15 -26 26 -34 48 -34 59 0 105
90 117 227 l7 81 -68 6 c-38 4 -81 9 -96 11 -31 5 -38 -8 -38 -71 0 -39 -3
-44 -23 -44 -45 0 -154 39 -247 88 -135 72 -194 85 -375 86 -148 1 -152 0
-257 -36 -65 -23 -138 -40 -185 -44 l-76 -7 6 62 c5 45 3 63 -6 66 -6 2 -51 6
-98 10 l-87 6 -7 -70z"/>
<path d="M16626 4518 c-129 -71 -230 -206 -276 -368 -26 -93 -39 -314 -21
-348 17 -31 56 -45 84 -31 33 18 37 28 37 109 0 258 100 460 267 541 59 28 74
60 46 97 -29 38 -66 38 -137 0z"/>
<path d="M17427 4473 c-8 -10 -18 -29 -22 -43 -5 -22 4 -34 62 -86 121 -109
167 -218 166 -396 -1 -54 -7 -127 -14 -164 -11 -57 -11 -70 2 -92 19 -35 76
-42 102 -14 47 51 60 346 21 472 -37 124 -117 240 -210 307 -53 37 -83 41
-107 16z"/>
<path d="M16532 4052 c-11 -11 -23 -37 -26 -58 -5 -36 -24 -317 -24 -374 -1
-70 -23 -384 -31 -445 -6 -38 -10 -95 -10 -126 -1 -31 -7 -90 -15 -130 -8 -41
-17 -165 -21 -277 -7 -187 -6 -204 10 -222 11 -12 31 -20 49 -20 17 0 81 -9
141 -21 223 -41 479 -36 650 12 112 32 123 38 185 107 105 116 140 210 143
375 1 107 -8 156 -48 243 -23 51 -46 82 -83 115 -29 24 -52 47 -52 50 0 3 26
26 58 51 111 86 162 232 132 380 -16 84 -32 112 -99 181 -88 92 -204 137 -354
137 -40 0 -88 4 -107 9 -19 5 -91 12 -160 15 -69 3 -168 9 -221 12 -88 6 -98
5 -117 -14z m427 -97 c191 -22 270 -33 312 -45 46 -13 154 -110 181 -163 26
-51 35 -154 19 -210 -34 -116 -80 -167 -208 -231 -40 -20 -73 -40 -73 -44 0
-4 23 -15 50 -25 69 -25 170 -120 200 -189 72 -167 9 -402 -138 -514 -59 -45
-125 -62 -262 -68 -115 -5 -444 19 -487 35 -29 11 -42 63 -33 130 15 100 30
303 30 399 0 52 6 174 14 270 8 96 23 276 33 400 21 276 18 270 144 270 45 0
143 -7 218 -15z"/>
<path d="M16690 3921 c-24 -7 -25 -9 -41 -206 -28 -337 -28 -352 -16 -369 18
-23 375 -53 466 -39 209 34 330 145 333 308 1 47 -4 80 -14 100 -27 50 -87
114 -131 139 -39 21 -72 29 -247 56 -86 13 -318 20 -350 11z m330 -116 c174
-7 238 -33 281 -117 25 -49 24 -92 -5 -153 -24 -52 -89 -119 -132 -135 -53
-20 -388 -3 -419 21 -15 12 14 362 32 392 3 5 40 6 82 2 42 -3 114 -8 161 -10z"/>
<path d="M16626 3269 c-19 -62 -35 -237 -51 -580 -5 -97 -3 -128 7 -136 28
-22 186 -38 383 -38 193 0 202 1 250 25 69 34 126 94 166 176 33 66 34 73 34
184 0 110 -1 119 -28 158 -57 87 -181 162 -302 182 -69 12 -230 28 -352 36
-83 6 -103 4 -107 -7z m359 -104 c139 -21 176 -29 210 -47 72 -38 105 -104
105 -210 0 -87 -18 -132 -80 -201 -69 -78 -104 -91 -252 -95 -132 -4 -259 11
-277 32 -10 11 -5 82 19 271 5 44 10 116 11 160 1 44 6 86 12 93 13 17 127 15
252 -3z"/>
<path d="M13868 3998 c-53 -19 -53 -17 -40 -910 12 -908 8 -861 77 -874 43 -8
654 1 676 10 28 12 39 54 39 150 0 133 15 126 -267 126 l-231 0 -7 51 c-9 64
-8 1092 1 1260 8 153 4 173 -37 188 -39 13 -174 13 -211 -1z m125 -862 c4
-607 7 -740 18 -747 18 -12 271 -11 382 1 95 10 112 7 122 -18 13 -35 -13 -40
-230 -43 -234 -2 -310 5 -321 30 -4 9 -9 351 -11 760 -3 732 -1 793 28 764 4
-4 10 -340 12 -747z"/>
<path d="M15417 3993 c-47 -5 -59 -24 -87 -128 -12 -44 -31 -100 -41 -125 -16
-38 -40 -125 -100 -360 -6 -25 -25 -89 -41 -142 -16 -53 -32 -114 -35 -135 -3
-21 -13 -65 -24 -98 -69 -225 -159 -544 -188 -669 -28 -116 -27 -116 112 -123
142 -8 145 -5 176 123 13 55 28 104 33 111 15 18 469 13 492 -6 14 -12 44 -95
60 -173 11 -47 55 -62 163 -54 51 3 100 9 109 13 22 8 13 62 -32 195 -19 57
-50 159 -70 228 -19 69 -47 157 -60 195 -29 80 -144 495 -144 517 0 9 -9 37
-19 64 -27 69 -76 230 -116 386 -19 73 -43 144 -53 158 -20 26 -53 32 -135 23z
m57 -208 c8 -9 18 -32 21 -53 4 -20 35 -122 70 -227 85 -258 201 -623 209
-660 4 -16 20 -64 36 -105 43 -111 110 -337 110 -370 0 -16 -4 -31 -9 -34 -20
-13 -43 25 -66 108 -14 50 -28 93 -33 98 -10 10 -211 30 -223 22 -5 -3 -91 -5
-192 -3 -234 2 -248 2 -258 -8 -4 -4 -15 -37 -24 -73 -29 -120 -36 -141 -51
-147 -27 -10 -38 12 -26 54 6 21 20 70 30 108 37 131 123 450 168 620 25 94
58 213 74 265 16 52 48 163 70 245 51 180 59 194 94 160z"/>
<path d="M15441 3648 c-11 -29 -46 -146 -86 -283 -14 -49 -30 -103 -35 -120
-5 -16 -23 -82 -39 -145 -16 -63 -47 -178 -67 -255 -21 -77 -38 -160 -38 -185
l-1 -45 125 -8 c144 -9 485 -5 495 5 4 4 -4 40 -18 80 -52 149 -166 507 -197
618 -17 63 -38 133 -47 155 -8 22 -26 74 -40 115 -30 90 -39 102 -52 68z m75
-548 c93 -300 106 -350 100 -367 -6 -14 -24 -15 -157 -11 -82 3 -152 8 -155
11 -3 3 8 56 25 119 16 62 37 147 46 188 24 112 66 241 77 238 6 -2 35 -82 64
-178z"/>
<path d="M7714 3943 c-25 -18 -34 -56 -34 -143 0 -138 -13 -130 208 -131 103
-1 198 -4 212 -8 25 -7 25 -8 31 -156 4 -83 8 -379 10 -659 2 -317 8 -517 14
-529 15 -30 80 -49 158 -45 115 6 104 -63 110 715 3 370 8 677 12 683 4 6 76
10 189 10 141 0 187 3 202 14 16 12 20 29 22 108 3 81 1 97 -16 118 l-19 24
-544 3 c-299 2 -549 1 -555 -4z m1030 -119 c15 -39 -6 -42 -224 -36 l-210 5
-1 -99 c-1 -182 3 -766 6 -1040 4 -285 0 -316 -39 -301 -15 6 -16 57 -17 574
-1 312 -4 633 -8 713 l-6 145 -155 1 c-300 3 -297 3 -304 20 -3 9 -4 20 0 25
3 5 205 9 479 9 427 0 473 -2 479 -16z"/>
<path d="M9314 3941 c-24 -11 -76 -162 -143 -418 -22 -84 -56 -199 -75 -255
-20 -57 -63 -204 -96 -328 -33 -124 -74 -265 -90 -315 -15 -49 -33 -124 -40
-165 -6 -41 -13 -92 -17 -112 -5 -33 -3 -39 19 -47 14 -5 65 -11 113 -12 80
-3 89 -1 105 19 18 21 40 102 40 143 0 55 3 56 228 63 271 10 276 7 298 -133
4 -24 17 -55 30 -70 21 -25 26 -26 122 -25 106 0 132 9 132 46 0 10 -20 71
-44 136 -37 101 -129 411 -178 607 -9 33 -25 83 -36 110 -30 74 -93 282 -157
520 -31 116 -62 216 -70 224 -17 17 -111 25 -141 12z m79 -218 c8 -21 36 -105
61 -188 26 -82 76 -240 113 -350 65 -198 87 -271 143 -475 16 -58 38 -132 49
-165 11 -34 23 -80 27 -104 7 -41 6 -43 -17 -39 -19 2 -27 13 -37 48 -48 159
-45 153 -80 162 -18 5 -155 8 -304 6 l-271 -3 -23 -75 c-13 -41 -26 -91 -29
-112 -4 -21 -11 -41 -16 -44 -17 -10 -41 18 -35 40 4 12 25 93 47 181 22 88
60 228 84 310 23 83 48 173 54 200 28 120 155 553 182 623 13 33 34 27 52 -15z"/>
<path d="M9356 3622 c-6 -9 -90 -277 -112 -357 -14 -48 -53 -196 -95 -355 -11
-41 -26 -104 -34 -140 -8 -36 -17 -75 -21 -86 -5 -20 -1 -22 43 -27 26 -2 156
-4 288 -3 l240 1 -2 49 c-1 29 -33 144 -82 295 -44 135 -107 333 -141 439 -56
176 -70 207 -84 184z m73 -489 c18 -65 48 -172 67 -238 31 -111 32 -121 17
-132 -18 -14 -199 -17 -243 -4 -30 9 -30 27 0 141 10 41 33 133 51 205 17 71
36 140 42 153 10 21 12 22 22 8 7 -8 26 -68 44 -133z"/>
<path d="M10230 3930 c-11 -20 -10 -118 6 -1020 9 -467 12 -581 18 -606 9 -35
40 -46 128 -46 91 1 113 6 123 30 4 9 9 111 11 226 2 115 6 212 10 215 3 3 67
6 142 7 l137 1 50 -51 c28 -28 103 -123 167 -211 64 -88 126 -169 137 -179 10
-10 38 -20 61 -23 54 -8 218 16 224 32 12 31 -104 212 -271 420 l-63 80 36 30
c93 77 185 178 215 236 74 147 79 423 9 559 -50 98 -186 226 -289 273 -81 36
-205 47 -533 47 -299 0 -308 -1 -318 -20z m657 -85 c118 -22 200 -55 249 -98
70 -62 129 -152 156 -242 22 -71 24 -89 17 -165 -10 -109 -26 -159 -77 -247
-46 -78 -113 -144 -203 -200 -33 -20 -59 -39 -59 -43 0 -4 15 -27 33 -51 19
-24 53 -73 77 -109 24 -36 77 -109 117 -163 71 -96 91 -136 79 -156 -13 -20
-38 3 -88 78 -28 42 -100 142 -160 222 l-110 146 -254 1 -254 1 0 -224 c0
-184 -2 -224 -14 -228 -8 -3 -19 0 -24 6 -11 14 -24 667 -23 1142 1 289 3 321
18 333 25 18 417 17 520 -3z"/>
<path d="M10430 3801 l-25 -7 3 -455 c2 -249 7 -458 11 -462 4 -4 104 -8 222
-8 195 -1 219 1 270 20 165 63 311 221 338 366 21 114 4 273 -35 316 -8 8 -14
21 -14 28 0 19 -80 100 -126 127 -54 32 -120 51 -241 69 -100 15 -357 19 -403
6z m348 -85 c141 -16 209 -43 265 -105 54 -60 78 -136 80 -260 2 -101 0 -109
-31 -175 -18 -39 -50 -86 -70 -105 -51 -48 -145 -97 -223 -116 -80 -19 -268
-21 -274 -2 -2 6 -6 107 -9 222 -3 116 -8 283 -12 372 l-7 162 24 10 c34 14
115 13 257 -3z"/>
<path d="M3350 3190 l0 -80 1070 0 1070 0 0 80 0 80 -1070 0 -1070 0 0 -80z"/>
<path d="M3120 2680 l0 -380 1285 0 1285 0 0 380 0 380 -1285 0 -1285 0 0
-380z"/>
<path d="M3266 1840 c-64 -20 -107 -85 -108 -164 -1 -64 24 -119 66 -149 l31
-22 7535 -3 c7320 -2 7536 -2 7570 16 42 23 77 71 86 120 16 82 -41 181 -116
202 -44 12 -15022 12 -15064 0z"/>
<path d="M467 1166 c-52 -19 -75 -42 -87 -86 -10 -39 -1 -90 22 -117 19 -23
75 -56 138 -82 88 -35 126 -77 114 -126 -11 -44 -49 -65 -120 -65 -35 0 -75 5
-89 12 -21 9 -25 18 -25 55 0 39 -2 43 -25 43 -24 0 -25 -2 -25 -63 0 -73 2
-75 103 -97 45 -11 68 -11 111 -1 94 21 133 71 123 157 -6 61 -32 85 -148 143
-102 51 -135 84 -125 125 13 50 99 80 174 60 18 -5 22 -13 22 -50 0 -42 1 -44
30 -44 l30 0 0 64 c0 75 0 75 -110 82 -51 3 -87 0 -113 -10z"/>
<path d="M4680 1145 c0 -22 4 -25 35 -25 l35 0 0 -55 0 -56 -49 7 c-151 20
-241 -53 -241 -196 0 -100 37 -160 110 -180 54 -14 97 -7 144 25 45 31 46 31
46 0 0 -23 3 -25 50 -25 47 0 50 2 50 25 0 20 -5 25 -24 25 -13 0 -27 7 -30
16 -3 9 -6 117 -6 240 l0 224 -60 0 c-57 0 -60 -1 -60 -25z m39 -186 l31 -11
0 -83 c0 -134 -26 -175 -111 -175 -61 0 -84 11 -104 50 -19 37 -19 132 -1 169
28 52 112 75 185 50z"/>
<path d="M5360 1100 c0 -68 1 -70 25 -70 23 0 25 4 25 45 l0 45 55 0 55 0 0
-215 0 -215 -40 0 c-36 0 -40 -2 -40 -25 l0 -25 115 0 115 0 0 24 c0 22 -5 25
-42 28 l-43 3 -3 213 -2 212 60 0 60 0 0 -45 c0 -41 2 -45 25 -45 24 0 25 2
25 70 l0 70 -195 0 -195 0 0 -70z"/>
<path d="M6700 1145 c0 -21 5 -25 30 -25 l30 0 0 -240 0 -240 25 0 25 0 0 115
c0 75 5 127 14 148 25 60 98 89 159 63 47 -19 57 -56 57 -208 l0 -118 25 0 25
0 0 138 c0 208 -15 238 -122 249 -44 4 -61 0 -101 -21 -26 -14 -50 -26 -53
-26 -2 0 -4 43 -4 95 l0 95 -55 0 c-52 0 -55 -1 -55 -25z"/>
<path d="M7810 1150 c-26 -48 30 -91 70 -55 25 22 25 37 2 58 -25 23 -59 21
-72 -3z"/>
<path d="M10558 1153 c-30 -19 -43 -44 -53 -97 -7 -35 -9 -36 -51 -36 -40 0
-44 -2 -44 -25 0 -23 4 -25 45 -25 l45 0 0 -140 0 -140 -45 0 c-41 0 -45 -2
-45 -25 l0 -25 155 0 155 0 0 25 c0 25 -1 25 -80 25 l-80 0 0 140 0 140 80 0
c79 0 80 0 80 25 0 25 -1 25 -80 25 -79 0 -80 0 -80 25 0 14 12 37 26 52 22
22 32 25 79 21 47 -4 54 -2 59 16 3 11 0 24 -7 28 -23 14 -131 8 -159 -9z"/>
<path d="M12276 913 c-47 -142 -86 -262 -86 -266 0 -5 12 -7 27 -5 23 3 29 12
48 68 l22 65 108 0 108 0 22 -65 c20 -60 24 -65 53 -68 l31 -3 -88 263 -88
263 -35 3 -36 3 -86 -258z m162 65 c19 -61 36 -117 39 -125 4 -10 -13 -13 -82
-13 -69 0 -86 3 -82 13 3 8 20 61 37 118 35 112 38 119 48 119 4 0 22 -50 40
-112z"/>
<path d="M12720 1145 c0 -21 5 -25 29 -25 l29 0 4 -202 c4 -234 11 -259 76
-279 41 -12 101 -1 136 24 17 13 18 16 5 35 -13 18 -17 18 -34 6 -29 -22 -102
-18 -115 5 -6 12 -10 107 -10 240 l0 221 -60 0 c-57 0 -60 -1 -60 -25z"/>
<path d="M14651 1148 c-15 -40 14 -74 54 -64 52 13 38 86 -16 86 -22 0 -32 -6
-38 -22z"/>
<path d="M15370 1145 c0 -21 5 -25 30 -25 l30 0 0 -240 0 -240 25 0 25 0 0
123 c0 77 5 131 13 146 21 41 64 66 114 66 37 0 49 -5 69 -28 23 -27 24 -35
24 -168 l0 -139 31 0 31 0 -4 153 c-5 199 -17 222 -117 234 -45 5 -71 -3 -153
-45 -5 -2 -8 39 -8 92 l0 96 -55 0 c-52 0 -55 -1 -55 -25z"/>
<path d="M16482 1158 c-36 -36 7 -91 54 -69 42 19 26 81 -21 81 -12 0 -26 -5
-33 -12z"/>
<path d="M17733 1163 c-10 -3 -13 -66 -13 -264 l0 -259 30 0 30 0 0 116 0 115
51 -3 51 -3 62 -112 c59 -108 62 -113 94 -113 l33 0 -46 83 c-25 45 -55 101
-67 123 l-21 42 36 32 c84 73 64 201 -36 239 -28 11 -181 14 -204 4z m186 -58
c37 -18 53 -63 40 -109 -13 -48 -46 -66 -119 -66 l-60 0 0 95 0 95 55 0 c31 0
69 -7 84 -15z"/>
<path d="M18560 1145 c0 -21 5 -25 30 -25 l30 0 2 -232 3 -233 63 -14 c104
-24 194 2 246 73 16 21 22 46 24 110 5 107 -17 158 -81 187 -56 25 -94 24
-150 -5 l-47 -23 0 93 0 94 -60 0 c-57 0 -60 -1 -60 -25z m307 -196 c55 -53
54 -170 -2 -226 -30 -30 -38 -33 -93 -33 -94 0 -92 -2 -92 107 0 66 5 103 16
124 30 59 121 74 171 28z"/>
<path d="M20130 1156 c-31 -38 9 -89 54 -68 45 20 30 82 -20 82 -12 0 -27 -7
-34 -14z"/>
<path d="M893 1103 c-8 -2 -13 -22 -13 -44 l0 -39 -45 0 c-41 0 -45 -2 -45
-25 0 -23 4 -25 45 -25 l45 0 0 -112 c0 -125 12 -165 63 -202 36 -27 118 -28
175 -2 43 20 46 24 36 50 -5 14 -9 14 -34 1 -16 -8 -52 -15 -80 -15 -41 0 -56
5 -75 25 -24 23 -25 30 -25 140 l0 115 100 0 100 0 0 25 0 25 -100 0 -100 0 0
45 c0 46 -10 54 -47 38z"/>
<path d="M2723 1102 c-6 -4 -13 -23 -15 -42 -3 -33 -5 -35 -45 -38 -38 -3 -43
-6 -43 -27 0 -21 5 -24 43 -27 l42 -3 5 -125 c3 -77 10 -134 18 -148 16 -27
84 -61 123 -62 30 0 106 25 125 41 10 8 11 16 3 31 -10 18 -12 18 -34 4 -24
-16 -108 -22 -140 -10 -33 13 -45 59 -45 169 l0 105 100 0 100 0 0 25 0 25
-100 0 -100 0 0 45 c0 45 -10 54 -37 37z"/>
<path d="M15033 1103 c-8 -2 -13 -22 -13 -44 l0 -39 -45 0 c-41 0 -45 -2 -45
-25 0 -23 4 -25 45 -25 l45 0 0 -110 c0 -71 5 -122 14 -144 30 -72 106 -99
200 -72 61 18 70 27 61 56 -6 19 -8 19 -35 5 -16 -8 -52 -15 -80 -15 -41 0
-56 5 -75 25 -24 23 -25 30 -25 140 l0 115 100 0 100 0 0 25 0 25 -100 0 -100
0 0 45 c0 46 -10 54 -47 38z"/>
<path d="M19593 1103 c-8 -2 -13 -22 -13 -44 l0 -39 -45 0 c-41 0 -45 -2 -45
-25 0 -23 4 -25 45 -25 l45 0 0 -92 c0 -124 7 -161 39 -197 39 -46 100 -59
174 -37 58 17 74 33 63 61 -5 14 -9 14 -35 0 -43 -22 -123 -20 -152 4 -22 18
-24 27 -27 140 l-4 121 101 0 101 0 0 25 0 25 -100 0 -100 0 0 45 c0 46 -10
54 -47 38z"/>
<path d="M2295 1016 c-49 -19 -90 -63 -104 -113 -34 -121 20 -236 122 -262 60
-15 84 -14 143 4 69 21 89 38 75 64 -11 20 -11 20 -44 1 -23 -14 -50 -20 -95
-20 -72 0 -111 20 -137 70 -31 60 -11 160 37 192 32 21 104 31 143 20 25 -7
30 -14 33 -45 3 -32 7 -37 28 -37 22 0 24 3 24 54 0 52 -1 54 -32 66 -56 19
-149 22 -193 6z"/>
<path d="M4127 1016 c-50 -19 -76 -42 -98 -91 -37 -80 -17 -198 43 -253 39
-36 121 -48 188 -29 73 21 94 38 86 65 l-7 22 -39 -20 c-27 -14 -59 -20 -101
-20 -56 0 -64 3 -95 34 -24 24 -34 43 -34 65 l0 31 145 0 145 0 0 43 c-1 59
-32 122 -70 142 -44 23 -118 28 -163 11z m156 -76 c49 -55 41 -60 -93 -60
-131 0 -138 4 -99 54 43 54 144 57 192 6z"/>
<path d="M5951 1018 c-88 -30 -134 -131 -111 -243 26 -124 154 -178 285 -120
52 24 58 30 46 53 -11 20 -11 20 -48 1 -48 -25 -143 -26 -180 -2 -14 9 -32 32
-39 50 -27 63 -29 62 134 65 l147 3 -3 50 c-4 56 -25 99 -63 127 -31 23 -121
32 -168 16z m124 -52 c34 -14 55 -41 55 -70 0 -14 -18 -16 -119 -16 l-120 0
10 29 c21 60 102 87 174 57z"/>
<path d="M6407 1015 c-81 -28 -117 -86 -117 -187 1 -146 116 -227 262 -184 71
20 92 37 84 64 l-7 22 -39 -20 c-53 -27 -141 -27 -185 0 -45 28 -61 71 -57
157 4 71 86 121 178 107 43 -6 44 -7 44 -45 0 -35 3 -39 25 -39 25 0 26 2 23
57 l-3 57 -50 13 c-64 16 -110 16 -158 -2z"/>
<path d="M7345 1011 c-22 -10 -47 -26 -55 -36 -14 -17 -15 -16 -20 11 -5 27
-9 29 -53 32 -45 3 -47 2 -47 -22 0 -21 5 -26 25 -26 l25 0 0 -165 0 -165 30
0 30 0 0 129 c0 124 1 131 26 160 34 41 91 58 130 40 46 -22 54 -51 54 -196
l0 -133 31 0 31 0 -4 148 c-4 168 -15 204 -73 228 -45 19 -82 17 -130 -5z"/>
<path d="M9146 1016 c-49 -19 -93 -60 -107 -104 -19 -56 -8 -163 21 -206 45
-65 130 -89 221 -63 72 21 93 38 85 65 l-7 22 -39 -20 c-50 -25 -140 -27 -181
-3 -25 15 -59 74 -59 103 0 6 59 10 151 10 l152 0 -5 48 c-6 64 -35 120 -70
138 -43 22 -117 27 -162 10z m139 -60 c12 -8 27 -29 33 -45 l11 -31 -120 0
c-130 0 -137 4 -98 54 36 45 122 56 174 22z"/>
<path d="M9596 1020 c-90 -29 -113 -135 -37 -175 17 -8 54 -20 83 -26 114 -24
153 -64 108 -109 -28 -28 -130 -28 -185 0 -38 19 -41 19 -52 3 -19 -25 -17
-29 30 -52 128 -62 277 -15 277 87 0 33 -6 45 -30 66 -17 14 -49 30 -70 36
-22 5 -59 15 -82 21 -24 6 -49 16 -55 21 -21 17 -15 56 10 70 32 18 116 15
157 -5 33 -17 35 -17 47 0 19 25 17 29 -29 48 -52 21 -133 28 -172 15z"/>
<path d="M10969 1020 c-79 -23 -119 -89 -119 -192 0 -48 6 -76 23 -108 65
-123 260 -115 318 14 35 78 17 200 -37 248 -47 41 -123 57 -185 38z m106 -54
c50 -21 75 -68 75 -141 0 -96 -35 -134 -121 -135 -48 0 -59 4 -83 29 -36 37
-49 97 -36 158 13 55 24 71 65 89 39 17 58 17 100 0z"/>
<path d="M13695 1015 c-103 -36 -143 -179 -83 -298 48 -96 203 -114 284 -33
68 68 68 224 0 292 -51 51 -126 65 -201 39z m142 -60 c46 -31 70 -143 42 -198
-28 -54 -50 -67 -112 -67 -53 0 -62 3 -87 30 -32 34 -46 97 -36 155 8 41 48
92 79 98 35 8 87 -1 114 -18z"/>
<path d="M15932 1005 c-36 -30 -42 -31 -42 -5 0 13 -7 20 -20 20 -19 0 -20 -7
-20 -190 l0 -190 25 0 25 0 0 126 c0 139 13 187 58 207 21 10 27 8 43 -12 17
-20 19 -41 19 -172 l0 -149 25 0 25 0 0 125 c0 141 12 187 56 207 23 11 28 10
45 -11 17 -20 19 -41 19 -172 l0 -149 26 0 25 0 -3 176 c-3 171 -4 176 -27
195 -34 27 -75 24 -112 -9 l-31 -28 -28 28 c-35 35 -69 36 -108 3z"/>
<path d="M16897 1016 c-21 -8 -48 -22 -59 -33 -59 -52 -76 -174 -35 -253 28
-56 58 -77 129 -92 49 -10 65 -9 110 5 72 23 92 38 84 65 l-7 21 -37 -19 c-26
-14 -56 -20 -101 -20 -61 0 -65 2 -103 40 l-40 40 4 71 c3 65 7 74 35 99 36
32 97 45 153 32 31 -7 35 -11 38 -45 3 -32 7 -37 28 -37 22 0 24 3 24 54 0 52
-1 54 -32 66 -55 19 -149 22 -191 6z"/>
<path d="M18257 1016 c-49 -18 -64 -32 -88 -77 -13 -27 -19 -59 -19 -106 0
-130 62 -198 180 -198 124 1 197 100 176 239 -9 60 -42 107 -96 134 -50 25
-97 27 -153 8z m118 -50 c55 -23 77 -68 73 -148 -3 -58 -8 -71 -33 -98 -25
-26 -35 -30 -86 -30 -47 0 -60 4 -83 26 -48 48 -57 153 -19 212 15 24 65 51
96 52 10 0 33 -6 52 -14z"/>
<path d="M19174 1019 c-38 -11 -82 -53 -100 -96 -18 -42 -18 -145 0 -186 47
-111 205 -140 294 -54 49 47 66 141 42 227 -24 88 -134 139 -236 109z m148
-76 c59 -57 52 -209 -12 -243 -10 -5 -43 -10 -72 -10 -47 0 -58 4 -83 30 -25
27 -30 40 -33 99 -5 82 13 125 61 147 44 20 105 9 139 -23z"/>
<path d="M20547 1016 c-21 -8 -48 -22 -59 -33 -60 -54 -77 -172 -35 -253 28
-56 58 -77 129 -92 49 -10 65 -9 110 5 72 23 92 38 84 65 l-7 21 -37 -19 c-26
-14 -56 -20 -101 -20 -60 0 -65 2 -102 39 -38 37 -39 41 -39 106 0 63 2 69 33
100 37 37 96 51 157 37 31 -7 35 -11 38 -45 3 -32 7 -37 28 -37 22 0 24 3 24
54 0 52 -1 54 -32 66 -55 19 -149 22 -191 6z"/>
<path d="M20995 1015 c-52 -18 -75 -48 -75 -95 0 -54 37 -82 144 -107 34 -8
71 -21 83 -29 28 -18 30 -55 5 -77 -28 -25 -131 -23 -184 4 -33 17 -42 18 -49
7 -17 -26 -9 -39 34 -58 92 -41 185 -34 240 18 22 21 27 34 27 73 0 41 -4 51
-28 68 -16 11 -60 28 -98 37 -122 30 -150 57 -103 100 27 24 121 25 165 1 28
-14 34 -15 44 -2 20 24 4 43 -51 59 -64 19 -102 20 -154 1z"/>
<path d="M1270 996 c0 -23 4 -25 53 -28 l52 -3 0 -135 0 -135 -52 -3 c-49 -3
-53 -5 -53 -28 l0 -24 155 0 155 0 0 25 c0 24 -2 25 -75 25 l-76 0 3 117 3
117 40 23 c72 41 115 25 115 -41 0 -21 5 -26 25 -26 21 0 25 5 25 29 0 104
-66 138 -164 86 -26 -14 -49 -25 -50 -25 -2 0 -7 11 -10 25 -6 24 -10 25 -76
25 -68 0 -70 -1 -70 -24z"/>
<path d="M1700 995 c0 -20 5 -25 24 -25 24 0 24 0 28 -133 4 -153 13 -179 77
-198 52 -16 104 -4 145 31 19 17 36 30 40 30 3 0 6 -13 6 -30 0 -29 2 -30 45
-30 41 0 45 2 45 24 0 18 -6 25 -22 28 -23 3 -23 6 -26 166 l-2 162 -50 0
c-47 0 -50 -2 -50 -25 0 -18 5 -25 20 -25 19 0 20 -7 20 -105 0 -102 -1 -105
-31 -140 -28 -31 -37 -35 -80 -35 -73 0 -82 18 -87 191 l-5 139 -48 0 c-46 0
-49 -2 -49 -25z"/>
<path d="M3070 996 c0 -18 6 -25 23 -28 21 -3 22 -8 27 -133 6 -151 16 -177
79 -196 52 -16 104 -4 145 31 36 32 46 30 46 -7 0 -21 5 -23 45 -23 41 0 45 2
45 25 0 20 -5 25 -25 25 l-25 0 0 165 0 165 -55 0 c-52 0 -55 -1 -55 -25 0
-20 5 -25 25 -25 l25 0 0 -105 c0 -102 -1 -105 -31 -140 -27 -31 -37 -35 -78
-35 -78 0 -85 14 -89 186 l-4 144 -49 0 c-45 0 -49 -2 -49 -24z"/>
<path d="M3550 996 c0 -23 4 -25 53 -28 l52 -3 0 -135 0 -135 -52 -3 c-49 -3
-53 -5 -53 -28 l0 -24 155 0 155 0 0 25 c0 24 -2 25 -75 25 l-75 0 0 115 0
114 43 26 c73 42 117 30 117 -32 0 -29 3 -33 26 -33 26 0 26 1 22 52 -9 88
-70 112 -162 63 -26 -14 -49 -25 -50 -25 -2 0 -7 11 -10 25 -6 24 -10 25 -76
25 -68 0 -70 -1 -70 -24z"/>
<path d="M7690 995 c0 -24 2 -25 65 -25 l65 0 0 -140 0 -140 -65 0 c-63 0 -65
-1 -65 -25 l0 -25 160 0 160 0 0 25 c0 24 -2 25 -65 25 l-65 0 0 165 0 165
-95 0 c-95 0 -95 0 -95 -25z"/>
<path d="M8229 1009 c-88 -25 -135 -131 -111 -246 14 -66 48 -108 101 -123 55
-15 83 -12 134 14 l47 23 0 -93 c0 -94 0 -94 25 -94 l25 0 0 254 c0 232 -1
254 -17 261 -31 12 -166 15 -204 4z m145 -49 c25 -9 26 -12 26 -100 0 -97 -14
-141 -49 -160 -26 -13 -107 -13 -133 1 -42 23 -64 142 -35 199 29 58 121 87
191 60z"/>
<path d="M8540 995 c0 -20 5 -25 25 -25 l25 0 0 -102 c1 -122 10 -171 41 -204
43 -46 144 -40 196 12 31 31 33 30 33 -6 0 -29 1 -30 50 -30 46 0 50 2 50 24
0 19 -6 25 -27 28 l-28 3 -3 163 -2 162 -50 0 c-46 0 -50 -2 -50 -24 0 -18 6
-25 23 -28 21 -3 22 -8 25 -92 4 -138 -27 -186 -119 -186 -73 0 -79 14 -79
187 l0 143 -55 0 c-52 0 -55 -1 -55 -25z"/>
<path d="M11310 995 c0 -23 3 -25 50 -25 l50 0 0 -140 0 -140 -50 0 c-47 0
-50 -2 -50 -25 l0 -25 150 0 150 0 0 25 c0 23 -3 24 -72 27 l-73 3 -3 106 -3
107 31 25 c17 15 47 29 67 33 31 6 39 3 55 -16 10 -12 18 -33 18 -46 0 -19 5
-24 26 -24 24 0 26 3 20 31 -3 17 -6 40 -6 50 0 30 -36 59 -73 59 -19 0 -55
-11 -82 -25 -52 -26 -65 -25 -65 6 0 17 -7 19 -70 19 -68 0 -70 -1 -70 -25z"/>
<path d="M13263 1011 c-85 -22 -123 -82 -123 -191 0 -96 24 -144 87 -172 56
-25 122 -20 164 11 l29 22 0 -45 c0 -64 -30 -97 -96 -103 -33 -3 -63 0 -88 11
-22 9 -40 15 -41 14 -1 -2 -8 -13 -14 -26 -11 -20 -9 -23 16 -34 15 -6 62 -12
103 -12 89 -1 135 20 162 74 15 30 18 65 18 236 0 183 -2 203 -17 209 -28 11
-165 15 -200 6z m126 -47 l31 -6 0 -103 c0 -97 -2 -105 -26 -134 -23 -28 -31
-31 -83 -31 -68 0 -97 23 -112 90 -30 133 51 211 190 184z"/>
<path d="M14050 995 c0 -23 3 -25 50 -25 l50 0 0 -140 0 -140 -50 0 c-47 0
-50 -2 -50 -25 l0 -25 150 0 150 0 0 25 c0 24 -2 25 -75 25 l-75 0 0 108 c0
100 2 110 23 129 31 28 61 43 90 43 30 0 42 -14 52 -57 5 -23 12 -33 26 -33
16 0 19 7 19 45 0 36 -6 52 -26 72 -23 23 -31 25 -72 19 -26 -3 -59 -15 -74
-26 -35 -26 -46 -25 -50 3 -3 20 -9 22 -70 25 -67 3 -68 3 -68 -23z"/>
<path d="M14530 995 c0 -24 2 -25 65 -25 l65 0 0 -140 0 -140 -65 0 c-63 0
-65 -1 -65 -25 l0 -25 160 0 160 0 0 25 c0 24 -2 25 -65 25 l-65 0 0 165 0
165 -95 0 c-95 0 -95 0 -95 -25z"/>
<path d="M16360 995 c0 -24 2 -25 65 -25 l65 0 0 -140 0 -140 -65 0 c-63 0
-65 -1 -65 -25 l0 -25 155 0 155 0 0 25 c0 23 -4 24 -62 27 l-63 3 -3 163 -2
162 -90 0 c-89 0 -90 0 -90 -25z"/>
<path d="M20010 995 c0 -24 2 -25 65 -25 l65 0 0 -140 0 -140 -65 0 c-63 0
-65 -1 -65 -25 l0 -25 155 0 155 0 0 25 c0 23 -4 24 -62 27 l-63 3 -3 163 -2
162 -90 0 c-89 0 -90 0 -90 -25z"/>
</g>
</svg>
