<svg id="svg" version="1.1" xmlns="http://www.w3.org/2000/svg" xmlns:xlink="http://www.w3.org/1999/xlink" width="400" height="400" viewBox="0, 0, 400,400"><g id="svgg"><path id="path0" d="M106.656 125.746 C 96.005 131.348,66.893 147.219,66.436 147.673 C 65.105 148.993,65.373 151.164,67.347 155.046 C 68.681 157.669,69.055 158.682,68.850 159.111 C 68.699 159.426,62.237 169.241,54.489 180.922 L 40.402 202.160 39.087 202.164 L 37.771 202.167 37.771 204.334 L 37.771 206.502 64.706 206.502 L 91.641 206.502 91.641 204.334 L 91.641 202.167 89.087 202.167 L 86.533 202.167 86.614 180.380 L 86.695 158.592 85.763 158.206 C 85.250 157.994,84.830 157.732,84.830 157.625 C 84.830 157.235,110.595 143.598,110.847 143.854 C 110.990 143.999,114.034 147.663,117.613 151.996 L 124.119 159.875 122.911 160.990 C 121.082 162.678,120.339 167.209,121.394 170.236 C 121.715 171.159,121.618 171.395,119.706 174.325 L 117.677 177.434 118.608 180.072 L 119.539 182.710 117.812 184.369 C 112.277 189.687,113.127 198.757,119.560 203.014 L 120.813 203.844 128.489 203.760 C 138.511 203.650,139.137 203.834,140.232 207.209 C 142.810 215.153,129.361 218.516,125.417 210.913 C 124.839 209.800,119.458 211.068,119.029 212.418 C 118.192 215.056,123.743 220.483,128.061 221.248 C 141.317 223.598,150.420 214.827,146.029 203.938 C 143.429 197.492,139.536 195.707,130.750 196.932 C 124.492 197.805,121.343 196.411,120.824 192.539 C 120.488 190.039,121.794 188.599,125.310 187.594 C 129.164 186.492,130.062 186.672,132.397 189.019 C 134.639 191.272,134.715 191.287,138.209 190.132 C 140.674 189.316,140.560 187.398,137.854 184.182 L 137.061 183.240 137.920 180.333 L 138.779 177.425 136.945 174.858 C 135.937 173.446,135.008 172.121,134.881 171.913 C 134.754 171.705,134.864 171.120,135.127 170.613 C 136.499 167.960,135.613 162.357,133.576 160.803 L 132.477 159.965 133.539 158.852 C 137.037 155.190,136.700 154.284,127.884 143.625 C 121.494 135.899,119.874 134.365,118.100 134.365 C 117.183 134.365,117.038 134.190,115.476 131.192 C 112.143 124.798,110.449 123.752,106.656 125.746 M334.023 147.404 C 331.766 148.232,332.330 149.833,334.882 149.840 C 335.762 149.843,336.702 149.930,336.972 150.033 C 337.821 150.359,337.571 148.679,336.642 147.818 C 335.768 147.008,335.303 146.934,334.023 147.404 M367.957 150.219 C 365.718 151.503,366.106 152.502,368.937 152.741 C 371.653 152.971,371.617 152.984,371.336 151.865 C 370.983 150.455,369.124 149.550,367.957 150.219 M325.146 150.946 C 324.312 151.531,324.250 152.733,325.015 153.498 C 325.701 154.184,343.034 155.765,343.898 155.220 C 345.089 154.469,345.176 152.627,344.043 152.171 C 343.596 151.991,327.893 150.484,326.307 150.469 C 326.047 150.466,325.525 150.681,325.146 150.946 M359.443 153.645 C 358.351 154.201,358.206 155.823,359.192 156.463 C 360.057 157.025,376.550 158.552,377.613 158.169 C 379.019 157.662,379.265 155.775,378.012 155.105 C 377.692 154.933,374.114 154.517,370.061 154.181 C 366.009 153.844,362.136 153.497,361.455 153.410 C 360.746 153.320,359.886 153.420,359.443 153.645 M331.824 158.318 C 331.617 163.395,333.060 165.730,335.176 163.743 C 335.822 163.136,336.080 163.105,338.756 163.313 L 341.641 163.537 342.945 164.889 C 344.699 166.707,345.168 167.708,345.499 170.346 C 345.854 173.177,345.966 173.251,350.301 173.522 C 354.527 173.786,354.308 173.895,355.131 171.131 C 355.704 169.207,356.035 168.675,357.625 167.119 L 359.459 165.325 361.420 165.325 C 364.611 165.325,366.181 165.631,366.352 166.285 C 366.576 167.143,367.962 167.692,368.589 167.171 C 369.760 166.200,371.482 160.233,370.791 159.543 C 370.668 159.419,369.492 159.311,368.178 159.303 L 365.789 159.288 365.692 160.640 L 365.596 161.992 364.299 161.791 C 363.586 161.680,361.401 160.844,359.443 159.931 C 353.337 157.087,348.958 156.680,343.344 158.435 C 341.726 158.941,339.601 159.445,338.622 159.556 L 336.842 159.758 336.842 158.197 C 336.842 156.420,336.888 156.452,333.991 156.253 L 331.914 156.111 331.824 158.318 M338.730 167.724 C 333.494 170.814,329.155 181.983,331.751 185.690 C 332.963 187.419,334.675 186.359,334.675 183.880 C 334.675 177.466,336.983 172.531,341.057 170.232 C 342.742 169.281,343.162 168.583,342.633 167.614 C 341.880 166.235,341.224 166.253,338.730 167.724 M359.202 168.593 C 358.325 169.208,358.313 170.431,359.177 171.133 C 361.312 172.866,361.882 173.487,362.667 174.929 C 364.283 177.898,364.714 181.084,364.046 185.129 C 363.501 188.431,364.339 189.879,366.215 188.876 C 367.704 188.078,368.238 179.977,367.042 176.326 C 365.521 171.686,361.064 167.289,359.202 168.593 M133.911 175.241 L 136.397 176.740 136.206 179.083 C 135.972 181.940,136.024 181.885,134.342 181.047 C 131.722 179.742,125.475 179.998,122.248 181.542 L 120.796 182.237 120.622 180.979 C 120.526 180.287,120.360 179.018,120.254 178.159 L 120.061 176.597 122.382 175.063 L 124.703 173.529 128.064 173.635 L 131.424 173.741 133.911 175.241 M336.794 178.937 C 336.129 179.349,335.367 186.290,335.229 193.189 C 335.205 194.358,334.754 200.084,334.350 204.334 C 333.798 210.146,333.308 217.747,333.401 219.040 C 333.482 220.159,333.988 220.548,335.658 220.773 C 346.587 222.250,349.710 222.275,354.542 220.927 C 363.258 218.496,366.377 205.928,359.799 199.742 C 358.497 198.517,358.423 198.373,358.950 198.078 C 363.966 195.271,365.070 187.594,361.070 183.337 C 358.893 181.019,356.707 180.121,352.574 179.847 C 350.754 179.726,349.152 179.560,349.014 179.477 C 348.875 179.394,347.229 179.241,345.356 179.138 C 343.483 179.035,340.906 178.876,339.628 178.785 C 338.272 178.688,337.093 178.751,336.794 178.937 M349.222 181.908 C 355.014 182.503,355.665 182.698,357.569 184.410 C 362.406 188.759,361.337 194.534,355.087 197.824 L 352.824 199.014 354.004 199.507 C 354.653 199.778,355.300 200.000,355.441 200.000 C 357.304 200.000,360.170 205.168,360.108 208.418 C 359.942 217.168,355.118 219.776,341.404 218.531 C 335.933 218.034,336.181 218.398,336.784 211.765 C 336.977 209.636,337.208 206.153,337.297 204.025 C 337.386 201.896,337.591 198.553,337.752 196.594 C 337.914 194.636,338.211 190.735,338.413 187.926 C 338.951 180.426,338.304 180.786,349.222 181.908 M269.357 182.904 L 268.677 183.455 268.703 198.306 C 268.732 215.718,268.984 224.262,269.487 224.950 C 270.006 225.661,272.660 225.807,280.309 225.546 L 287.017 225.318 287.504 224.377 C 287.854 223.700,287.956 222.831,287.869 221.281 C 287.691 218.147,287.727 218.162,281.232 218.419 L 275.932 218.629 275.707 217.751 C 275.584 217.268,275.531 209.304,275.590 200.052 C 275.714 180.570,276.048 182.353,272.266 182.353 C 270.591 182.353,269.869 182.490,269.357 182.904 M339.517 188.467 C 338.797 196.915,338.804 197.096,339.861 197.305 C 351.384 199.593,359.352 196.620,359.429 190.006 C 359.489 184.886,354.110 182.353,343.181 182.353 L 340.039 182.353 339.517 188.467 M133.127 183.655 C 134.182 184.104,136.533 186.398,136.533 186.980 C 136.533 187.796,135.778 187.507,134.638 186.255 C 132.963 184.413,131.056 183.751,128.135 183.996 C 120.432 184.642,115.927 190.084,118.464 195.677 C 120.094 199.269,120.705 199.461,130.650 199.502 C 138.422 199.535,138.569 199.548,140.086 200.310 C 144.959 202.757,146.015 210.825,142.053 215.338 C 139.480 218.268,131.286 220.270,127.864 218.804 C 125.405 217.751,121.917 214.168,122.474 213.267 C 122.791 212.754,123.159 213.021,124.408 214.675 C 129.768 221.775,143.344 217.582,143.344 208.827 C 143.344 205.935,141.604 202.278,139.828 201.435 C 138.250 200.686,131.733 200.197,128.954 200.618 C 123.538 201.439,119.257 200.032,117.655 196.904 C 114.527 190.798,118.566 184.461,126.316 183.317 C 130.505 182.698,130.926 182.719,133.127 183.655 M305.965 182.915 C 305.564 183.169,302.964 190.798,302.463 193.189 C 302.302 193.955,301.970 195.279,301.724 196.130 C 301.478 196.981,300.925 199.002,300.495 200.619 C 300.065 202.237,299.136 205.580,298.431 208.050 C 293.161 226.495,293.286 225.236,296.689 225.529 C 300.325 225.842,300.654 225.645,301.437 222.682 C 301.802 221.302,302.188 220.031,302.295 219.858 C 302.522 219.491,313.250 219.546,313.850 219.918 C 314.061 220.049,314.531 221.158,314.895 222.384 C 315.786 225.385,315.856 225.439,318.797 225.420 C 322.936 225.393,322.910 225.479,320.761 218.760 C 317.814 209.548,316.183 204.052,314.690 198.297 C 314.469 197.446,313.733 194.938,313.055 192.724 C 312.376 190.511,311.679 188.142,311.504 187.461 C 311.330 186.780,311.035 185.637,310.849 184.921 C 310.314 182.867,307.719 181.800,305.965 182.915 M152.275 183.813 C 151.437 184.012,151.003 185.569,151.135 187.904 C 151.293 190.700,150.993 190.556,156.656 190.557 C 159.353 190.558,161.667 190.666,161.799 190.798 C 161.930 190.929,162.099 198.145,162.174 206.834 C 162.332 225.213,162.063 223.821,165.497 224.066 C 169.241 224.334,169.013 225.117,169.066 211.765 C 169.091 205.550,169.187 198.200,169.279 195.433 L 169.447 190.402 173.865 190.402 C 179.256 190.402,179.257 190.402,179.257 187.189 C 179.257 183.583,180.456 183.883,165.627 183.780 C 158.565 183.731,152.556 183.746,152.275 183.813 M212.404 184.173 C 212.196 184.562,212.190 190.697,212.385 202.671 C 212.545 212.526,212.681 221.180,212.685 221.904 C 212.698 223.902,213.428 224.459,216.022 224.453 C 219.146 224.446,219.016 224.689,219.195 218.510 L 219.350 213.158 221.207 212.981 C 222.229 212.884,223.883 212.895,224.882 213.006 C 226.955 213.236,226.425 212.727,231.164 219.040 C 234.998 224.147,235.213 224.297,238.300 224.018 C 242.701 223.619,242.533 222.880,236.158 214.608 C 233.476 211.128,233.437 210.925,235.225 209.796 C 243.596 204.511,242.720 190.608,233.683 185.329 C 230.724 183.600,213.219 182.649,212.404 184.173 M189.932 184.221 C 189.626 184.715,187.369 192.064,186.661 194.866 C 186.314 196.242,185.486 199.110,184.821 201.238 C 181.170 212.927,178.825 222.602,179.484 223.261 C 179.661 223.438,180.905 223.658,182.247 223.750 C 185.168 223.951,185.324 223.831,185.821 221.005 C 186.311 218.220,186.126 218.307,191.840 218.202 C 197.687 218.096,197.869 218.172,198.501 220.996 C 199.052 223.460,199.538 223.839,202.142 223.839 C 205.797 223.839,205.922 223.518,204.162 218.669 C 203.012 215.502,200.824 207.864,200.455 205.728 C 200.337 205.046,199.925 203.723,199.539 202.786 C 198.538 200.356,197.393 196.703,196.287 192.415 C 194.069 183.808,194.117 183.901,191.931 183.901 C 190.940 183.901,190.040 184.045,189.932 184.221 M352.844 185.940 C 357.240 187.154,357.489 192.770,353.251 195.118 C 352.168 195.718,343.874 195.778,342.358 195.196 C 341.789 194.978,341.821 192.701,342.465 187.670 L 342.795 185.093 347.017 185.295 C 349.339 185.406,351.961 185.696,352.844 185.940 M272.646 196.621 C 272.671 202.651,272.706 210.697,272.723 214.500 L 272.755 221.414 278.870 221.328 C 284.749 221.245,284.985 221.265,284.985 221.844 C 284.985 222.662,272.642 222.794,272.129 221.981 C 271.649 221.221,271.732 185.366,272.214 185.527 C 272.512 185.627,272.611 188.157,272.646 196.621 M230.767 186.965 C 239.950 189.987,240.861 202.810,232.299 208.527 C 231.307 209.189,230.377 209.826,230.233 209.942 C 229.982 210.144,232.744 214.294,235.941 218.518 C 236.777 219.622,237.461 220.784,237.461 221.099 C 237.461 222.284,236.571 221.590,234.919 219.118 C 233.981 217.713,232.230 215.295,231.027 213.744 L 228.841 210.924 222.702 210.957 L 216.563 210.991 216.638 215.944 C 216.710 220.715,216.493 222.192,215.819 221.514 C 215.467 221.160,215.073 186.578,215.417 186.234 C 215.998 185.654,228.608 186.254,230.767 186.965 M176.721 187.074 C 176.817 187.573,176.406 187.616,171.505 187.616 L 166.185 187.616 166.318 204.427 C 166.391 213.673,166.394 221.405,166.326 221.609 C 166.051 222.435,165.325 221.970,165.336 220.975 C 165.400 214.825,165.014 188.841,164.850 188.313 C 164.637 187.625,164.563 187.616,159.252 187.616 C 154.065 187.616,153.870 187.593,153.870 186.993 C 153.870 186.084,176.546 186.164,176.721 187.074 M216.576 187.596 C 216.097 188.370,216.500 209.316,216.999 209.548 C 218.240 210.128,227.962 209.704,229.445 209.005 C 240.049 204.007,239.686 190.245,228.886 187.809 C 226.408 187.250,216.892 187.085,216.576 187.596 M308.285 188.003 C 308.457 188.216,308.695 188.878,308.814 189.474 C 308.934 190.070,309.842 192.995,310.833 195.975 C 311.824 198.955,313.290 203.483,314.091 206.037 C 314.892 208.591,315.796 211.378,316.101 212.229 C 317.107 215.044,318.885 221.108,318.885 221.728 C 318.885 223.301,317.801 222.083,317.183 219.815 L 316.552 217.501 315.319 217.291 C 314.641 217.175,310.986 217.079,307.197 217.076 C 299.321 217.071,300.103 216.748,299.235 220.356 C 298.929 221.628,298.530 222.601,298.315 222.601 C 297.446 222.601,297.315 223.257,300.512 211.610 C 301.119 209.396,301.937 206.331,302.330 204.799 C 302.722 203.266,303.347 200.967,303.718 199.690 C 304.089 198.413,304.781 195.975,305.255 194.272 C 307.217 187.237,307.386 186.887,308.285 188.003 M194.108 195.046 C 195.141 198.367,196.461 202.477,197.042 204.180 C 197.624 205.882,198.471 208.599,198.926 210.217 C 199.381 211.834,200.245 214.805,200.846 216.818 C 201.603 219.356,201.839 220.576,201.615 220.800 C 201.067 221.348,200.711 220.832,200.139 218.657 C 199.327 215.573,199.957 215.789,191.804 215.789 L 184.612 215.789 184.079 217.879 C 183.310 220.894,183.017 221.531,182.591 221.105 C 182.329 220.843,182.531 219.632,183.387 216.336 C 186.604 203.946,189.658 193.097,191.203 188.567 C 191.549 187.554,192.299 189.227,194.108 195.046 M225.978 189.489 C 231.407 190.169,233.729 192.759,233.736 198.142 C 233.746 204.581,229.408 208.036,221.304 208.047 L 219.543 208.050 219.383 206.734 C 219.123 204.581,218.873 189.589,219.094 189.368 C 219.403 189.059,223.068 189.124,225.978 189.489 M307.278 191.528 C 306.680 192.959,304.440 200.644,303.859 203.255 C 303.632 204.280,303.296 205.511,303.113 205.993 C 301.696 209.719,300.686 215.630,301.419 215.911 C 302.216 216.217,316.099 216.128,316.099 215.817 C 316.099 215.662,315.830 214.791,315.501 213.882 C 314.675 211.595,310.954 199.844,310.518 198.142 C 310.123 196.600,308.099 190.658,307.901 190.461 C 307.833 190.392,307.552 190.872,307.278 191.528 M190.333 194.814 C 188.474 200.526,184.812 214.430,185.093 214.711 C 185.175 214.793,188.372 214.861,192.196 214.861 L 199.150 214.861 198.960 213.672 C 198.856 213.018,197.946 209.987,196.939 206.938 C 195.931 203.888,194.664 199.870,194.122 198.008 C 192.941 193.947,191.986 191.331,191.686 191.331 C 191.565 191.331,190.956 192.899,190.333 194.814 M339.162 198.839 C 338.539 200.600,337.942 206.881,337.704 214.177 C 337.601 217.346,337.330 217.166,342.907 217.650 C 354.419 218.648,358.448 216.384,359.000 208.606 C 359.428 202.575,355.623 199.795,345.754 198.927 C 339.276 198.356,339.333 198.357,339.162 198.839 M192.260 200.137 C 192.260 200.212,192.957 202.798,193.808 205.882 C 195.808 213.127,195.985 212.423,192.183 212.317 L 189.009 212.229 189.045 211.300 C 189.155 208.428,192.260 197.646,192.260 200.137 M308.654 202.399 C 309.037 203.719,309.897 206.535,310.565 208.656 C 312.139 213.649,312.265 213.435,307.877 213.241 C 303.617 213.053,303.904 213.269,304.662 210.820 C 305.002 209.722,305.492 207.737,305.751 206.409 C 306.340 203.388,307.374 200.000,307.707 200.000 C 307.846 200.000,308.272 201.080,308.654 202.399 M349.822 201.744 C 355.264 202.711,357.494 206.251,355.453 210.681 C 353.601 214.700,348.352 216.338,342.003 214.878 C 340.380 214.504,340.438 214.803,340.991 209.695 C 341.265 207.172,341.523 204.272,341.565 203.251 L 341.641 201.393 342.724 201.231 C 344.207 201.010,346.713 201.191,349.822 201.744 M32.198 217.183 L 32.198 226.938 64.474 226.859 L 96.749 226.780 96.749 217.183 L 96.749 207.585 64.474 207.506 L 32.198 207.427 32.198 217.183 M12.422 233.966 C 9.040 235.632,9.655 241.120,13.335 242.111 C 15.881 242.797,385.154 242.345,386.295 241.654 C 389.059 239.983,388.821 235.096,385.916 233.882 C 384.158 233.147,13.915 233.230,12.422 233.966 " stroke="none" fill="#283f47" fill-rule="evenodd"></path><path id="path1" d="M0.000 200.000 L 0.000 400.000 200.000 400.000 L 400.000 400.000 400.000 200.000 L 400.000 0.000 200.000 0.000 L 0.000 0.000 0.000 200.000 M110.983 125.249 C 112.361 125.903,113.515 127.430,115.476 131.192 C 117.038 134.190,117.183 134.365,118.100 134.365 C 119.874 134.365,121.494 135.899,127.884 143.625 C 136.700 154.284,137.037 155.190,133.539 158.852 L 132.477 159.965 133.576 160.803 C 135.613 162.357,136.499 167.960,135.127 170.613 C 134.864 171.120,134.754 171.705,134.881 171.913 C 135.008 172.121,135.937 173.446,136.945 174.858 L 138.779 177.425 137.920 180.333 L 137.061 183.240 137.854 184.182 C 140.560 187.398,140.674 189.316,138.209 190.132 C 134.715 191.287,134.639 191.272,132.397 189.019 C 130.062 186.672,129.164 186.492,125.310 187.594 C 121.794 188.599,120.488 190.039,120.824 192.539 C 121.343 196.411,124.492 197.805,130.750 196.932 C 139.536 195.707,143.429 197.492,146.029 203.938 C 150.420 214.827,141.317 223.598,128.061 221.248 C 123.743 220.483,118.192 215.056,119.029 212.418 C 119.458 211.068,124.839 209.800,125.417 210.913 C 129.361 218.516,142.810 215.153,140.232 207.209 C 139.137 203.834,138.511 203.650,128.489 203.760 L 120.813 203.844 119.560 203.014 C 113.127 198.757,112.277 189.687,117.812 184.369 L 119.539 182.710 118.608 180.072 L 117.677 177.434 119.706 174.325 C 121.618 171.395,121.715 171.159,121.394 170.236 C 120.339 167.209,121.082 162.678,122.911 160.990 L 124.119 159.875 117.613 151.996 C 114.034 147.663,110.990 143.999,110.847 143.854 C 110.595 143.598,84.830 157.235,84.830 157.625 C 84.830 157.732,85.250 157.994,85.763 158.206 L 86.695 158.592 86.614 180.380 L 86.533 202.167 89.087 202.167 L 91.641 202.167 91.641 204.334 L 91.641 206.502 64.706 206.502 L 37.771 206.502 37.771 204.334 L 37.771 202.167 39.087 202.164 L 40.402 202.160 54.489 180.922 C 62.237 169.241,68.699 159.426,68.850 159.111 C 69.055 158.682,68.681 157.669,67.347 155.046 C 65.373 151.164,65.105 148.993,66.436 147.673 C 66.893 147.219,96.005 131.348,106.656 125.746 C 108.749 124.646,109.524 124.557,110.983 125.249 M336.642 147.818 C 337.571 148.679,337.821 150.359,336.972 150.033 C 336.702 149.930,335.762 149.843,334.882 149.840 C 332.765 149.834,332.363 149.572,332.846 148.512 C 333.516 147.041,335.427 146.692,336.642 147.818 M370.160 150.436 C 370.989 150.941,371.794 152.458,371.429 152.823 C 371.033 153.219,366.564 152.502,366.573 152.044 C 366.607 150.370,368.592 149.480,370.160 150.436 M335.139 151.213 C 339.737 151.619,343.743 152.050,344.043 152.171 C 345.176 152.627,345.089 154.469,343.898 155.220 C 343.034 155.765,325.701 154.184,325.015 153.498 C 324.250 152.733,324.312 151.531,325.146 150.946 C 325.994 150.353,325.165 150.331,335.139 151.213 M370.061 154.181 C 374.114 154.517,377.692 154.933,378.012 155.105 C 379.265 155.775,379.019 157.662,377.613 158.169 C 376.550 158.552,360.057 157.025,359.192 156.463 C 357.384 155.289,359.008 153.097,361.455 153.410 C 362.136 153.497,366.009 153.844,370.061 154.181 M336.455 156.516 C 336.698 156.592,336.842 157.220,336.842 158.197 L 336.842 159.758 338.622 159.556 C 339.601 159.445,341.726 158.941,343.344 158.435 C 348.958 156.680,353.337 157.087,359.443 159.931 C 361.401 160.844,363.586 161.680,364.299 161.791 L 365.596 161.992 365.692 160.640 L 365.789 159.288 368.178 159.303 C 369.492 159.311,370.668 159.419,370.791 159.543 C 371.482 160.233,369.760 166.200,368.589 167.171 C 367.962 167.692,366.576 167.143,366.352 166.285 C 366.181 165.631,364.611 165.325,361.420 165.325 L 359.459 165.325 357.625 167.119 C 356.035 168.675,355.704 169.207,355.131 171.131 C 354.308 173.895,354.527 173.786,350.301 173.522 C 345.966 173.251,345.854 173.177,345.499 170.346 C 345.168 167.708,344.699 166.707,342.945 164.889 L 341.641 163.537 338.756 163.313 C 336.080 163.105,335.822 163.136,335.176 163.743 C 333.060 165.730,331.617 163.395,331.824 158.318 L 331.914 156.111 333.991 156.253 C 335.133 156.331,336.242 156.450,336.455 156.516 M341.977 166.800 C 343.415 167.774,343.059 169.102,341.057 170.232 C 336.983 172.531,334.675 177.466,334.675 183.880 C 334.675 185.838,334.331 186.378,333.083 186.378 C 329.651 186.378,331.271 175.302,335.410 170.465 C 337.426 168.110,340.980 166.126,341.977 166.800 M362.295 169.436 C 366.828 173.104,369.023 181.016,367.231 187.224 C 366.103 191.127,363.354 189.319,364.046 185.129 C 364.714 181.084,364.283 177.898,362.667 174.929 C 361.882 173.487,361.312 172.866,359.177 171.133 C 358.313 170.431,358.325 169.208,359.202 168.593 C 360.201 167.893,360.483 167.970,362.295 169.436 M122.382 175.063 L 120.061 176.597 120.254 178.159 C 120.360 179.018,120.526 180.287,120.622 180.979 L 120.796 182.237 122.248 181.542 C 125.475 179.998,131.722 179.742,134.342 181.047 C 136.024 181.885,135.972 181.940,136.206 179.083 L 136.397 176.740 133.911 175.241 L 131.424 173.741 128.064 173.635 L 124.703 173.529 122.382 175.063 M345.356 179.138 C 347.229 179.241,348.875 179.394,349.014 179.477 C 349.152 179.560,350.754 179.726,352.574 179.847 C 356.707 180.121,358.893 181.019,361.070 183.337 C 365.070 187.594,363.966 195.271,358.950 198.078 C 358.423 198.373,358.497 198.517,359.799 199.742 C 366.377 205.928,363.258 218.496,354.542 220.927 C 349.710 222.275,346.587 222.250,335.658 220.773 C 333.988 220.548,333.482 220.159,333.401 219.040 C 333.308 217.747,333.798 210.146,334.350 204.334 C 334.754 200.084,335.205 194.358,335.229 193.189 C 335.271 191.064,335.873 182.221,336.075 180.751 C 336.342 178.815,336.765 178.580,339.628 178.785 C 340.906 178.876,343.483 179.035,345.356 179.138 M340.940 181.365 C 339.024 181.503,338.839 181.985,338.413 187.926 C 338.211 190.735,337.914 194.636,337.752 196.594 C 337.591 198.553,337.386 201.896,337.297 204.025 C 337.208 206.153,336.977 209.636,336.784 211.765 C 336.181 218.398,335.933 218.034,341.404 218.531 C 355.118 219.776,359.942 217.168,360.108 208.418 C 360.170 205.168,357.304 200.000,355.441 200.000 C 355.300 200.000,354.653 199.778,354.004 199.507 L 352.824 199.014 355.087 197.824 C 361.337 194.534,362.406 188.759,357.569 184.410 C 355.665 182.698,355.014 182.503,349.222 181.908 C 343.379 181.307,342.518 181.251,340.940 181.365 M275.096 182.792 C 275.680 183.220,275.694 183.694,275.590 200.052 C 275.531 209.304,275.584 217.268,275.707 217.751 L 275.932 218.629 281.232 218.419 C 287.727 218.162,287.691 218.147,287.869 221.281 C 287.956 222.831,287.854 223.700,287.504 224.377 L 287.017 225.318 280.309 225.546 C 272.660 225.807,270.006 225.661,269.487 224.950 C 268.984 224.262,268.732 215.718,268.703 198.306 L 268.677 183.455 269.357 182.904 C 270.228 182.198,274.179 182.122,275.096 182.792 M349.816 182.814 C 356.531 183.699,359.477 185.903,359.429 190.006 C 359.352 196.620,351.384 199.593,339.861 197.305 C 338.804 197.096,338.797 196.915,339.517 188.467 L 340.039 182.353 343.181 182.353 C 344.910 182.353,347.896 182.560,349.816 182.814 M129.412 182.886 C 118.799 184.092,114.014 189.797,117.655 196.904 C 119.257 200.032,123.538 201.439,128.954 200.618 C 131.733 200.197,138.250 200.686,139.828 201.435 C 141.604 202.278,143.344 205.935,143.344 208.827 C 143.344 217.582,129.768 221.775,124.408 214.675 C 123.159 213.021,122.791 212.754,122.474 213.267 C 121.917 214.168,125.405 217.751,127.864 218.804 C 131.286 220.270,139.480 218.268,142.053 215.338 C 146.015 210.825,144.959 202.757,140.086 200.310 C 138.569 199.548,138.422 199.535,130.650 199.502 C 120.705 199.461,120.094 199.269,118.464 195.677 C 115.927 190.084,120.432 184.642,128.135 183.996 C 131.056 183.751,132.963 184.413,134.638 186.255 C 135.778 187.507,136.533 187.796,136.533 186.980 C 136.533 185.306,131.842 182.610,129.412 182.886 M310.032 183.141 C 310.295 183.404,310.662 184.205,310.849 184.921 C 311.035 185.637,311.330 186.780,311.504 187.461 C 311.679 188.142,312.376 190.511,313.055 192.724 C 313.733 194.938,314.469 197.446,314.690 198.297 C 316.183 204.052,317.814 209.548,320.761 218.760 C 322.910 225.479,322.936 225.393,318.797 225.420 C 315.856 225.439,315.786 225.385,314.895 222.384 C 314.531 221.158,314.061 220.049,313.850 219.918 C 313.250 219.546,302.522 219.491,302.295 219.858 C 302.188 220.031,301.802 221.302,301.437 222.682 C 300.654 225.645,300.325 225.842,296.689 225.529 C 293.286 225.236,293.161 226.495,298.431 208.050 C 299.136 205.580,300.065 202.237,300.495 200.619 C 300.925 199.002,301.478 196.981,301.724 196.130 C 301.970 195.279,302.302 193.955,302.463 193.189 C 302.964 190.798,305.564 183.169,305.965 182.915 C 306.662 182.472,309.522 182.631,310.032 183.141 M178.863 184.409 C 179.096 184.728,179.257 185.863,179.257 187.189 C 179.257 190.402,179.256 190.402,173.865 190.402 L 169.447 190.402 169.279 195.433 C 169.187 198.200,169.091 205.550,169.066 211.765 C 169.013 225.117,169.241 224.334,165.497 224.066 C 162.063 223.821,162.332 225.213,162.174 206.834 C 162.099 198.145,161.930 190.929,161.799 190.798 C 161.667 190.666,159.353 190.558,156.656 190.557 C 150.993 190.556,151.293 190.700,151.135 187.904 C 151.003 185.569,151.437 184.012,152.275 183.813 C 154.192 183.357,178.492 183.901,178.863 184.409 M229.503 184.036 C 241.534 185.989,245.396 203.375,235.225 209.796 C 233.437 210.925,233.476 211.128,236.158 214.608 C 242.533 222.880,242.701 223.619,238.300 224.018 C 235.213 224.297,234.998 224.147,231.164 219.040 C 226.425 212.727,226.955 213.236,224.882 213.006 C 223.883 212.895,222.229 212.884,221.207 212.981 L 219.350 213.158 219.195 218.510 C 219.016 224.689,219.146 224.446,216.022 224.453 C 213.428 224.459,212.698 223.902,212.685 221.904 C 212.681 221.180,212.545 212.526,212.385 202.671 C 212.190 190.697,212.196 184.562,212.404 184.173 C 212.812 183.410,225.046 183.312,229.503 184.036 M194.057 184.752 C 194.607 186.200,195.290 188.546,196.287 192.415 C 197.393 196.703,198.538 200.356,199.539 202.786 C 199.925 203.723,200.337 205.046,200.455 205.728 C 200.824 207.864,203.012 215.502,204.162 218.669 C 205.922 223.518,205.797 223.839,202.142 223.839 C 199.538 223.839,199.052 223.460,198.501 220.996 C 197.869 218.172,197.687 218.096,191.840 218.202 C 186.126 218.307,186.311 218.220,185.821 221.005 C 185.324 223.831,185.168 223.951,182.247 223.750 C 180.905 223.658,179.661 223.438,179.484 223.261 C 178.825 222.602,181.170 212.927,184.821 201.238 C 185.486 199.110,186.314 196.242,186.661 194.866 C 187.369 192.064,189.626 184.715,189.932 184.221 C 190.422 183.427,193.714 183.851,194.057 184.752 M342.465 187.670 C 341.420 195.839,341.093 195.330,347.519 195.555 C 353.812 195.776,355.945 194.503,356.265 190.336 C 356.533 186.855,354.312 185.644,347.017 185.295 L 342.795 185.093 342.465 187.670 M271.831 203.457 C 271.834 214.281,271.954 221.703,272.129 221.981 C 272.642 222.794,284.985 222.662,284.985 221.844 C 284.985 221.265,284.749 221.245,278.870 221.328 L 272.755 221.414 272.723 214.500 C 272.706 210.697,272.671 202.651,272.646 196.621 C 272.611 188.157,272.512 185.627,272.214 185.527 C 271.907 185.424,271.828 189.145,271.831 203.457 M215.417 186.234 C 215.073 186.578,215.467 221.160,215.819 221.514 C 216.493 222.192,216.710 220.715,216.638 215.944 L 216.563 210.991 222.702 210.957 L 228.841 210.924 231.027 213.744 C 232.230 215.295,233.981 217.713,234.919 219.118 C 236.571 221.590,237.461 222.284,237.461 221.099 C 237.461 220.784,236.777 219.622,235.941 218.518 C 232.744 214.294,229.982 210.144,230.233 209.942 C 230.377 209.826,231.307 209.189,232.299 208.527 C 240.861 202.810,239.950 189.987,230.767 186.965 C 228.608 186.254,215.998 185.654,215.417 186.234 M153.870 186.993 C 153.870 187.593,154.065 187.616,159.252 187.616 C 164.563 187.616,164.637 187.625,164.850 188.313 C 165.014 188.841,165.400 214.825,165.336 220.975 C 165.325 221.970,166.051 222.435,166.326 221.609 C 166.394 221.405,166.391 213.673,166.318 204.427 L 166.185 187.616 171.505 187.616 C 176.406 187.616,176.817 187.573,176.721 187.074 C 176.546 186.164,153.870 186.084,153.870 186.993 M228.886 187.809 C 239.686 190.245,240.049 204.007,229.445 209.005 C 227.962 209.704,218.240 210.128,216.999 209.548 C 216.500 209.316,216.097 188.370,216.576 187.596 C 216.892 187.085,226.408 187.250,228.886 187.809 M306.642 189.396 C 306.354 190.375,305.730 192.570,305.255 194.272 C 304.781 195.975,304.089 198.413,303.718 199.690 C 303.347 200.967,302.722 203.266,302.330 204.799 C 301.937 206.331,301.119 209.396,300.512 211.610 C 297.315 223.257,297.446 222.601,298.315 222.601 C 298.530 222.601,298.929 221.628,299.235 220.356 C 300.103 216.748,299.321 217.071,307.197 217.076 C 310.986 217.079,314.641 217.175,315.319 217.291 L 316.552 217.501 317.183 219.815 C 317.801 222.083,318.885 223.301,318.885 221.728 C 318.885 221.108,317.107 215.044,316.101 212.229 C 315.796 211.378,314.892 208.591,314.091 206.037 C 313.290 203.483,311.824 198.955,310.833 195.975 C 309.842 192.995,308.934 190.070,308.814 189.474 C 308.327 187.040,307.344 187.005,306.642 189.396 M191.203 188.567 C 189.658 193.097,186.604 203.946,183.387 216.336 C 182.531 219.632,182.329 220.843,182.591 221.105 C 183.017 221.531,183.310 220.894,184.079 217.879 L 184.612 215.789 191.804 215.789 C 199.957 215.789,199.327 215.573,200.139 218.657 C 200.711 220.832,201.067 221.348,201.615 220.800 C 201.839 220.576,201.603 219.356,200.846 216.818 C 200.245 214.805,199.381 211.834,198.926 210.217 C 198.471 208.599,197.624 205.882,197.042 204.180 C 196.461 202.477,195.141 198.367,194.108 195.046 C 192.299 189.227,191.549 187.554,191.203 188.567 M219.094 189.368 C 218.873 189.589,219.123 204.581,219.383 206.734 L 219.543 208.050 221.304 208.047 C 229.408 208.036,233.746 204.581,233.736 198.142 C 233.731 194.280,232.438 191.805,229.685 190.389 C 227.953 189.498,219.755 188.707,219.094 189.368 M309.094 193.667 C 309.681 195.362,310.322 197.376,310.518 198.142 C 310.954 199.844,314.675 211.595,315.501 213.882 C 315.830 214.791,316.099 215.662,316.099 215.817 C 316.099 216.128,302.216 216.217,301.419 215.911 C 300.686 215.630,301.696 209.719,303.113 205.993 C 303.296 205.511,303.632 204.280,303.859 203.255 C 304.890 198.618,307.571 190.131,307.901 190.461 C 307.970 190.529,308.507 191.973,309.094 193.667 M192.522 192.977 C 192.860 193.882,193.581 196.146,194.122 198.008 C 194.664 199.870,195.931 203.888,196.939 206.938 C 197.946 209.987,198.856 213.018,198.960 213.672 L 199.150 214.861 192.196 214.861 C 188.372 214.861,185.175 214.793,185.093 214.711 C 184.620 214.238,191.079 191.331,191.686 191.331 C 191.807 191.331,192.183 192.072,192.522 192.977 M345.754 198.927 C 355.623 199.795,359.428 202.575,359.000 208.606 C 358.591 214.371,355.432 217.611,349.940 217.899 C 347.097 218.049,338.711 217.417,338.042 217.004 C 337.243 216.510,338.158 201.676,339.162 198.839 C 339.333 198.357,339.276 198.356,345.754 198.927 M191.076 202.245 C 190.175 205.331,189.088 210.178,189.045 211.300 L 189.009 212.229 192.183 212.317 C 195.985 212.423,195.808 213.127,193.808 205.882 C 192.957 202.798,192.260 200.212,192.260 200.137 C 192.260 199.285,191.593 200.472,191.076 202.245 M306.838 201.997 C 306.499 203.095,306.010 205.080,305.751 206.409 C 305.492 207.737,305.002 209.722,304.662 210.820 C 303.904 213.269,303.617 213.053,307.877 213.241 C 312.265 213.435,312.139 213.649,310.565 208.656 C 309.897 206.535,309.037 203.719,308.654 202.399 C 307.810 199.486,307.627 199.445,306.838 201.997 M342.724 201.231 L 341.641 201.393 341.565 203.251 C 341.523 204.272,341.265 207.172,340.991 209.695 C 340.438 214.803,340.380 214.504,342.003 214.878 C 351.007 216.949,357.561 212.569,355.696 205.728 C 354.840 202.586,348.459 200.374,342.724 201.231 M96.749 217.183 L 96.749 226.780 64.474 226.859 L 32.198 226.938 32.198 217.183 L 32.198 207.427 64.474 207.506 L 96.749 207.585 96.749 217.183 M385.916 233.882 C 388.821 235.096,389.059 239.983,386.295 241.654 C 385.154 242.345,15.881 242.797,13.335 242.111 C 9.655 241.120,9.040 235.632,12.422 233.966 C 13.915 233.230,384.158 233.147,385.916 233.882 " stroke="none" fill="#ffffff" fill-rule="evenodd"></path></g></svg>